# This file uses centimeters as units for non-parametric coordinates.

mtllib Gate.mtl
g default
v -0.881118 -0.750000 -0.038627
v -0.898873 -0.750000 -0.073473
v -0.926527 -0.750000 -0.101127
v -0.961373 -0.750000 -0.118882
v -1.000000 -0.750000 -0.125000
v -1.038627 -0.750000 -0.118882
v -1.073473 -0.750000 -0.101127
v -1.101127 -0.750000 -0.073473
v -1.118882 -0.750000 -0.038627
v -1.125000 -0.750000 0.000000
v -1.118882 -0.750000 0.038627
v -1.101127 -0.750000 0.073473
v -1.073473 -0.750000 0.101127
v -1.038627 -0.750000 0.118882
v -1.000000 -0.750000 0.125000
v -0.961373 -0.750000 0.118882
v -0.926527 -0.750000 0.101127
v -0.898873 -0.750000 0.073473
v -0.881118 -0.750000 0.038627
v -0.875000 -0.750000 0.000000
v -0.881118 0.750000 -0.038627
v -0.898873 0.750000 -0.073473
v -0.926527 0.750000 -0.101127
v -0.961373 0.750000 -0.118882
v -1.000000 0.750000 -0.125000
v -1.038627 0.750000 -0.118882
v -1.073473 0.750000 -0.101127
v -1.101127 0.750000 -0.073473
v -1.118882 0.750000 -0.038627
v -1.125000 0.750000 0.000000
v -1.118882 0.750000 0.038627
v -1.101127 0.750000 0.073473
v -1.073473 0.750000 0.101127
v -1.038627 0.750000 0.118882
v -1.000000 0.750000 0.125000
v -0.961373 0.750000 0.118882
v -0.926527 0.750000 0.101127
v -0.898873 0.750000 0.073473
v -0.881118 0.750000 0.038627
v -0.875000 0.750000 0.000000
v -1.000000 -0.750000 0.000000
v -1.000000 0.750000 0.000000
vt 0.648603 0.107966
vt 0.626409 0.064408
vt 0.591842 0.029841
vt 0.548284 0.007647
vt 0.500000 -0.000000
vt 0.451716 0.007647
vt 0.408159 0.029841
vt 0.373591 0.064409
vt 0.351397 0.107966
vt 0.343750 0.156250
vt 0.351397 0.204534
vt 0.373591 0.248091
vt 0.408159 0.282659
vt 0.451716 0.304853
vt 0.500000 0.312500
vt 0.548284 0.304853
vt 0.591841 0.282659
vt 0.626409 0.248091
vt 0.648603 0.204534
vt 0.656250 0.156250
vt 0.375000 0.312500
vt 0.387500 0.312500
vt 0.400000 0.312500
vt 0.412500 0.312500
vt 0.425000 0.312500
vt 0.437500 0.312500
vt 0.450000 0.312500
vt 0.462500 0.312500
vt 0.475000 0.312500
vt 0.487500 0.312500
vt 0.500000 0.312500
vt 0.512500 0.312500
vt 0.525000 0.312500
vt 0.537500 0.312500
vt 0.550000 0.312500
vt 0.562500 0.312500
vt 0.575000 0.312500
vt 0.587500 0.312500
vt 0.600000 0.312500
vt 0.612500 0.312500
vt 0.625000 0.312500
vt 0.375000 0.688440
vt 0.387500 0.688440
vt 0.400000 0.688440
vt 0.412500 0.688440
vt 0.425000 0.688440
vt 0.437500 0.688440
vt 0.450000 0.688440
vt 0.462500 0.688440
vt 0.475000 0.688440
vt 0.487500 0.688440
vt 0.500000 0.688440
vt 0.512500 0.688440
vt 0.525000 0.688440
vt 0.537500 0.688440
vt 0.550000 0.688440
vt 0.562500 0.688440
vt 0.575000 0.688440
vt 0.587500 0.688440
vt 0.600000 0.688440
vt 0.612500 0.688440
vt 0.625000 0.688440
vt 0.648603 0.795466
vt 0.626409 0.751908
vt 0.591842 0.717341
vt 0.548284 0.695147
vt 0.500000 0.687500
vt 0.451716 0.695147
vt 0.408159 0.717341
vt 0.373591 0.751909
vt 0.351397 0.795466
vt 0.343750 0.843750
vt 0.351397 0.892034
vt 0.373591 0.935591
vt 0.408159 0.970159
vt 0.451716 0.992353
vt 0.500000 1.000000
vt 0.548284 0.992353
vt 0.591841 0.970159
vt 0.626409 0.935591
vt 0.648603 0.892034
vt 0.656250 0.843750
vt 0.500000 0.150000
vt 0.500000 0.837500
vn 0.951057 0.000000 -0.309016
vn 0.809017 0.000000 -0.587785
vn 0.809017 0.000000 -0.587785
vn 0.951057 0.000000 -0.309016
vn 0.587785 0.000000 -0.809017
vn 0.587785 0.000000 -0.809017
vn 0.309017 0.000000 -0.951057
vn 0.309017 0.000000 -0.951057
vn -0.000000 0.000000 -1.000000
vn -0.000000 0.000000 -1.000000
vn -0.309017 0.000000 -0.951057
vn -0.309017 0.000000 -0.951057
vn -0.587785 0.000000 -0.809017
vn -0.587785 0.000000 -0.809017
vn -0.809017 0.000000 -0.587785
vn -0.809017 0.000000 -0.587785
vn -0.951057 0.000000 -0.309017
vn -0.951057 0.000000 -0.309017
vn -1.000000 0.000000 0.000000
vn -1.000000 0.000000 0.000000
vn -0.951057 0.000000 0.309017
vn -0.951057 0.000000 0.309017
vn -0.809017 0.000000 0.587785
vn -0.809017 0.000000 0.587785
vn -0.587785 0.000000 0.809017
vn -0.587785 0.000000 0.809017
vn -0.309017 0.000000 0.951057
vn -0.309017 0.000000 0.951057
vn 0.000000 0.000000 1.000000
vn 0.000000 0.000000 1.000000
vn 0.309017 0.000000 0.951056
vn 0.309017 0.000000 0.951056
vn 0.587785 0.000000 0.809017
vn 0.587785 0.000000 0.809017
vn 0.809017 0.000000 0.587785
vn 0.809017 0.000000 0.587785
vn 0.951057 0.000000 0.309017
vn 0.951057 0.000000 0.309017
vn 1.000000 0.000000 0.000001
vn 1.000000 0.000000 0.000001
vn 0.000000 -1.000000 0.000001
vn 0.000000 -1.000000 0.000000
vn 0.000000 -1.000000 0.000000
vn 0.000000 -1.000000 0.000001
vn 0.000000 -1.000000 0.000000
vn 0.000000 -1.000000 0.000000
vn 0.000000 -1.000000 0.000000
vn 0.000000 -1.000000 0.000000
vn 0.000000 -1.000000 0.000000
vn 0.000000 -1.000000 0.000000
vn 0.000000 -1.000000 0.000000
vn 0.000000 -1.000000 0.000000
vn 0.000000 -1.000000 0.000000
vn 0.000000 -1.000000 0.000000
vn 0.000000 -1.000000 0.000000
vn 0.000000 -1.000000 0.000000
vn 0.000000 -1.000000 0.000000
vn 0.000000 -1.000000 0.000000
vn 0.000000 -1.000000 0.000000
vn 0.000000 -1.000000 0.000000
vn 0.000000 -1.000000 0.000000
vn 0.000000 1.000000 0.000000
vn 0.000000 1.000000 0.000000
vn 0.000000 1.000000 0.000000
vn 0.000000 1.000000 0.000000
vn 0.000000 1.000000 0.000000
vn 0.000000 1.000000 0.000000
vn 0.000000 1.000000 0.000000
vn 0.000000 1.000000 0.000000
vn 0.000000 1.000000 0.000000
vn 0.000000 1.000000 0.000000
vn 0.000000 1.000000 0.000000
vn 0.000000 1.000000 0.000000
vn 0.000000 1.000000 0.000000
vn 0.000000 1.000000 0.000000
vn 0.000000 1.000000 0.000000
vn 0.000000 1.000000 0.000000
vn 0.000000 1.000000 0.000000
vn 0.000000 1.000000 0.000000
vn 0.000000 1.000000 0.000000
vn 0.000000 1.000000 0.000000
vn 0.000000 1.000000 0.000000
s 1
g pCylinder2
usemtl initialShadingGroup
f 1/21/1 2/22/2 22/43/3 21/42/4
f 2/22/2 3/23/5 23/44/6 22/43/3
f 3/23/5 4/24/7 24/45/8 23/44/6
f 4/24/7 5/25/9 25/46/10 24/45/8
f 5/25/9 6/26/11 26/47/12 25/46/10
f 6/26/11 7/27/13 27/48/14 26/47/12
f 7/27/13 8/28/15 28/49/16 27/48/14
f 8/28/15 9/29/17 29/50/18 28/49/16
f 9/29/17 10/30/19 30/51/20 29/50/18
f 10/30/19 11/31/21 31/52/22 30/51/20
f 11/31/21 12/32/23 32/53/24 31/52/22
f 12/32/23 13/33/25 33/54/26 32/53/24
f 13/33/25 14/34/27 34/55/28 33/54/26
f 14/34/27 15/35/29 35/56/30 34/55/28
f 15/35/29 16/36/31 36/57/32 35/56/30
f 16/36/31 17/37/33 37/58/34 36/57/32
f 17/37/33 18/38/35 38/59/36 37/58/34
f 18/38/35 19/39/37 39/60/38 38/59/36
f 19/39/37 20/40/39 40/61/40 39/60/38
f 20/40/39 1/41/1 21/62/4 40/61/40
s 2
f 2/2/41 1/1/42 41/83/43
f 3/3/44 2/2/41 41/83/43
f 4/4/45 3/3/44 41/83/43
f 5/5/46 4/4/45 41/83/43
f 6/6/47 5/5/46 41/83/43
f 7/7/48 6/6/47 41/83/43
f 8/8/49 7/7/48 41/83/43
f 9/9/50 8/8/49 41/83/43
f 10/10/51 9/9/50 41/83/43
f 11/11/52 10/10/51 41/83/43
f 12/12/53 11/11/52 41/83/43
f 13/13/54 12/12/53 41/83/43
f 14/14/55 13/13/54 41/83/43
f 15/15/56 14/14/55 41/83/43
f 16/16/57 15/15/56 41/83/43
f 17/17/58 16/16/57 41/83/43
f 18/18/59 17/17/58 41/83/43
f 19/19/60 18/18/59 41/83/43
f 20/20/61 19/19/60 41/83/43
f 1/1/42 20/20/61 41/83/43
s 3
f 21/81/62 22/80/63 42/84/64
f 22/80/63 23/79/65 42/84/64
f 23/79/65 24/78/66 42/84/64
f 24/78/66 25/77/67 42/84/64
f 25/77/67 26/76/68 42/84/64
f 26/76/68 27/75/69 42/84/64
f 27/75/69 28/74/70 42/84/64
f 28/74/70 29/73/71 42/84/64
f 29/73/71 30/72/72 42/84/64
f 30/72/72 31/71/73 42/84/64
f 31/71/73 32/70/74 42/84/64
f 32/70/74 33/69/75 42/84/64
f 33/69/75 34/68/76 42/84/64
f 34/68/76 35/67/77 42/84/64
f 35/67/77 36/66/78 42/84/64
f 36/66/78 37/65/79 42/84/64
f 37/65/79 38/64/80 42/84/64
f 38/64/80 39/63/81 42/84/64
f 39/63/81 40/82/82 42/84/64
f 40/82/82 21/81/62 42/84/64
g default
v -1.000000 -0.750000 0.125000
v 1.000000 -0.750000 0.125000
v -1.000000 -0.500000 0.125000
v 1.000000 -0.500000 0.125000
v -1.000000 -0.500000 -0.125000
v 1.000000 -0.500000 -0.125000
v -1.000000 -0.750000 -0.125000
v 1.000000 -0.750000 -0.125000
vt 0.375000 0.000000
vt 0.625000 0.000000
vt 0.375000 0.250000
vt 0.625000 0.250000
vt 0.375000 0.500000
vt 0.625000 0.500000
vt 0.375000 0.750000
vt 0.625000 0.750000
vt 0.375000 1.000000
vt 0.625000 1.000000
vt 0.875000 0.000000
vt 0.875000 0.250000
vt 0.125000 0.000000
vt 0.125000 0.250000
vn 0.000000 0.000000 1.000000
vn 0.000000 0.000000 1.000000
vn 0.000000 0.000000 1.000000
vn 0.000000 0.000000 1.000000
vn 0.000000 1.000000 0.000000
vn 0.000000 1.000000 0.000000
vn 0.000000 1.000000 0.000000
vn 0.000000 1.000000 0.000000
vn 0.000000 0.000000 -1.000000
vn 0.000000 0.000000 -1.000000
vn 0.000000 0.000000 -1.000000
vn 0.000000 0.000000 -1.000000
vn 0.000000 -1.000000 0.000000
vn 0.000000 -1.000000 0.000000
vn 0.000000 -1.000000 0.000000
vn 0.000000 -1.000000 0.000000
vn 1.000000 0.000000 0.000000
vn 1.000000 0.000000 0.000000
vn 1.000000 0.000000 0.000000
vn 1.000000 0.000000 0.000000
vn -1.000000 0.000000 0.000000
vn -1.000000 0.000000 0.000000
vn -1.000000 0.000000 0.000000
vn -1.000000 0.000000 0.000000
s off
g pCube1
usemtl initialShadingGroup
f 43/85/83 44/86/84 46/88/85 45/87/86
f 45/87/87 46/88/88 48/90/89 47/89/90
f 47/89/91 48/90/92 50/92/93 49/91/94
f 49/91/95 50/92/96 44/94/97 43/93/98
f 44/86/99 50/95/100 48/96/101 46/88/102
f 49/97/103 43/85/104 45/87/105 47/98/106
g default
v 1.118882 -0.750000 -0.038627
v 1.101127 -0.750000 -0.073473
v 1.073473 -0.750000 -0.101127
v 1.038627 -0.750000 -0.118882
v 1.000000 -0.750000 -0.125000
v 0.961373 -0.750000 -0.118882
v 0.926527 -0.750000 -0.101127
v 0.898873 -0.750000 -0.073473
v 0.881118 -0.750000 -0.038627
v 0.875000 -0.750000 0.000000
v 0.881118 -0.750000 0.038627
v 0.898873 -0.750000 0.073473
v 0.926527 -0.750000 0.101127
v 0.961373 -0.750000 0.118882
v 1.000000 -0.750000 0.125000
v 1.038627 -0.750000 0.118882
v 1.073473 -0.750000 0.101127
v 1.101127 -0.750000 0.073473
v 1.118882 -0.750000 0.038627
v 1.125000 -0.750000 0.000000
v 1.118882 0.750000 -0.038627
v 1.101127 0.750000 -0.073473
v 1.073473 0.750000 -0.101127
v 1.038627 0.750000 -0.118882
v 1.000000 0.750000 -0.125000
v 0.961373 0.750000 -0.118882
v 0.926527 0.750000 -0.101127
v 0.898873 0.750000 -0.073473
v 0.881118 0.750000 -0.038627
v 0.875000 0.750000 0.000000
v 0.881118 0.750000 0.038627
v 0.898873 0.750000 0.073473
v 0.926527 0.750000 0.101127
v 0.961373 0.750000 0.118882
v 1.000000 0.750000 0.125000
v 1.038627 0.750000 0.118882
v 1.073473 0.750000 0.101127
v 1.101127 0.750000 0.073473
v 1.118882 0.750000 0.038627
v 1.125000 0.750000 0.000000
v 1.000000 -0.750000 0.000000
v 1.000000 0.750000 0.000000
vt 0.648603 0.107966
vt 0.626409 0.064408
vt 0.591842 0.029841
vt 0.548284 0.007647
vt 0.500000 -0.000000
vt 0.451716 0.007647
vt 0.408159 0.029841
vt 0.373591 0.064409
vt 0.351397 0.107966
vt 0.343750 0.156250
vt 0.351397 0.204534
vt 0.373591 0.248091
vt 0.408159 0.282659
vt 0.451716 0.304853
vt 0.500000 0.312500
vt 0.548284 0.304853
vt 0.591841 0.282659
vt 0.626409 0.248091
vt 0.648603 0.204534
vt 0.656250 0.156250
vt 0.375000 0.312500
vt 0.387500 0.312500
vt 0.400000 0.312500
vt 0.412500 0.312500
vt 0.425000 0.312500
vt 0.437500 0.312500
vt 0.450000 0.312500
vt 0.462500 0.312500
vt 0.475000 0.312500
vt 0.487500 0.312500
vt 0.500000 0.312500
vt 0.512500 0.312500
vt 0.525000 0.312500
vt 0.537500 0.312500
vt 0.550000 0.312500
vt 0.562500 0.312500
vt 0.575000 0.312500
vt 0.587500 0.312500
vt 0.600000 0.312500
vt 0.612500 0.312500
vt 0.625000 0.312500
vt 0.375000 0.688440
vt 0.387500 0.688440
vt 0.400000 0.688440
vt 0.412500 0.688440
vt 0.425000 0.688440
vt 0.437500 0.688440
vt 0.450000 0.688440
vt 0.462500 0.688440
vt 0.475000 0.688440
vt 0.487500 0.688440
vt 0.500000 0.688440
vt 0.512500 0.688440
vt 0.525000 0.688440
vt 0.537500 0.688440
vt 0.550000 0.688440
vt 0.562500 0.688440
vt 0.575000 0.688440
vt 0.587500 0.688440
vt 0.600000 0.688440
vt 0.612500 0.688440
vt 0.625000 0.688440
vt 0.648603 0.795466
vt 0.626409 0.751908
vt 0.591842 0.717341
vt 0.548284 0.695147
vt 0.500000 0.687500
vt 0.451716 0.695147
vt 0.408159 0.717341
vt 0.373591 0.751909
vt 0.351397 0.795466
vt 0.343750 0.843750
vt 0.351397 0.892034
vt 0.373591 0.935591
vt 0.408159 0.970159
vt 0.451716 0.992353
vt 0.500000 1.000000
vt 0.548284 0.992353
vt 0.591841 0.970159
vt 0.626409 0.935591
vt 0.648603 0.892034
vt 0.656250 0.843750
vt 0.500000 0.150000
vt 0.500000 0.837500
vn 0.951057 0.000000 -0.309016
vn 0.809017 0.000000 -0.587785
vn 0.809017 0.000000 -0.587785
vn 0.951057 0.000000 -0.309016
vn 0.587785 0.000000 -0.809017
vn 0.587785 0.000000 -0.809017
vn 0.309017 0.000000 -0.951057
vn 0.309017 0.000000 -0.951057
vn -0.000000 0.000000 -1.000000
vn -0.000000 0.000000 -1.000000
vn -0.309017 0.000000 -0.951057
vn -0.309017 0.000000 -0.951057
vn -0.587785 0.000000 -0.809017
vn -0.587785 0.000000 -0.809017
vn -0.809017 0.000000 -0.587785
vn -0.809017 0.000000 -0.587785
vn -0.951057 0.000000 -0.309017
vn -0.951057 0.000000 -0.309017
vn -1.000000 0.000000 0.000000
vn -1.000000 0.000000 0.000000
vn -0.951057 0.000000 0.309017
vn -0.951057 0.000000 0.309017
vn -0.809017 0.000000 0.587785
vn -0.809017 0.000000 0.587785
vn -0.587785 0.000000 0.809017
vn -0.587785 0.000000 0.809017
vn -0.309017 0.000000 0.951057
vn -0.309017 0.000000 0.951057
vn 0.000000 0.000000 1.000000
vn 0.000000 0.000000 1.000000
vn 0.309017 0.000000 0.951056
vn 0.309017 0.000000 0.951056
vn 0.587785 0.000000 0.809017
vn 0.587785 0.000000 0.809017
vn 0.809017 0.000000 0.587785
vn 0.809017 0.000000 0.587785
vn 0.951057 0.000000 0.309017
vn 0.951057 0.000000 0.309017
vn 1.000000 0.000000 0.000001
vn 1.000000 0.000000 0.000001
vn 0.000000 -1.000000 0.000001
vn 0.000000 -1.000000 0.000000
vn 0.000000 -1.000000 0.000000
vn 0.000000 -1.000000 0.000001
vn 0.000000 -1.000000 0.000000
vn 0.000000 -1.000000 0.000000
vn 0.000000 -1.000000 0.000000
vn 0.000000 -1.000000 0.000000
vn 0.000000 -1.000000 0.000000
vn 0.000000 -1.000000 0.000000
vn 0.000000 -1.000000 0.000000
vn 0.000000 -1.000000 0.000000
vn 0.000000 -1.000000 0.000000
vn 0.000000 -1.000000 0.000000
vn 0.000000 -1.000000 0.000000
vn 0.000000 -1.000000 0.000000
vn 0.000000 -1.000000 0.000000
vn 0.000000 -1.000000 0.000000
vn 0.000000 -1.000000 0.000000
vn 0.000000 -1.000000 0.000000
vn 0.000000 -1.000000 0.000000
vn 0.000000 1.000000 0.000000
vn 0.000000 1.000000 0.000000
vn 0.000000 1.000000 0.000000
vn 0.000000 1.000000 0.000000
vn 0.000000 1.000000 0.000000
vn 0.000000 1.000000 0.000000
vn 0.000000 1.000000 0.000000
vn 0.000000 1.000000 0.000000
vn 0.000000 1.000000 0.000000
vn 0.000000 1.000000 0.000000
vn 0.000000 1.000000 0.000000
vn 0.000000 1.000000 0.000000
vn 0.000000 1.000000 0.000000
vn 0.000000 1.000000 0.000000
vn 0.000000 1.000000 0.000000
vn 0.000000 1.000000 0.000000
vn 0.000000 1.000000 0.000000
vn 0.000000 1.000000 0.000000
vn 0.000000 1.000000 0.000000
vn 0.000000 1.000000 0.000000
vn 0.000000 1.000000 0.000000
s 1
g pCylinder3
usemtl initialShadingGroup
f 51/119/107 52/120/108 72/141/109 71/140/110
f 52/120/108 53/121/111 73/142/112 72/141/109
f 53/121/111 54/122/113 74/143/114 73/142/112
f 54/122/113 55/123/115 75/144/116 74/143/114
f 55/123/115 56/124/117 76/145/118 75/144/116
f 56/124/117 57/125/119 77/146/120 76/145/118
f 57/125/119 58/126/121 78/147/122 77/146/120
f 58/126/121 59/127/123 79/148/124 78/147/122
f 59/127/123 60/128/125 80/149/126 79/148/124
f 60/128/125 61/129/127 81/150/128 80/149/126
f 61/129/127 62/130/129 82/151/130 81/150/128
f 62/130/129 63/131/131 83/152/132 82/151/130
f 63/131/131 64/132/133 84/153/134 83/152/132
f 64/132/133 65/133/135 85/154/136 84/153/134
f 65/133/135 66/134/137 86/155/138 85/154/136
f 66/134/137 67/135/139 87/156/140 86/155/138
f 67/135/139 68/136/141 88/157/142 87/156/140
f 68/136/141 69/137/143 89/158/144 88/157/142
f 69/137/143 70/138/145 90/159/146 89/158/144
f 70/138/145 51/139/107 71/160/110 90/159/146
s 2
f 52/100/147 51/99/148 91/181/149
f 53/101/150 52/100/147 91/181/149
f 54/102/151 53/101/150 91/181/149
f 55/103/152 54/102/151 91/181/149
f 56/104/153 55/103/152 91/181/149
f 57/105/154 56/104/153 91/181/149
f 58/106/155 57/105/154 91/181/149
f 59/107/156 58/106/155 91/181/149
f 60/108/157 59/107/156 91/181/149
f 61/109/158 60/108/157 91/181/149
f 62/110/159 61/109/158 91/181/149
f 63/111/160 62/110/159 91/181/149
f 64/112/161 63/111/160 91/181/149
f 65/113/162 64/112/161 91/181/149
f 66/114/163 65/113/162 91/181/149
f 67/115/164 66/114/163 91/181/149
f 68/116/165 67/115/164 91/181/149
f 69/117/166 68/116/165 91/181/149
f 70/118/167 69/117/166 91/181/149
f 51/99/148 70/118/167 91/181/149
s 3
f 71/179/168 72/178/169 92/182/170
f 72/178/169 73/177/171 92/182/170
f 73/177/171 74/176/172 92/182/170
f 74/176/172 75/175/173 92/182/170
f 75/175/173 76/174/174 92/182/170
f 76/174/174 77/173/175 92/182/170
f 77/173/175 78/172/176 92/182/170
f 78/172/176 79/171/177 92/182/170
f 79/171/177 80/170/178 92/182/170
f 80/170/178 81/169/179 92/182/170
f 81/169/179 82/168/180 92/182/170
f 82/168/180 83/167/181 92/182/170
f 83/167/181 84/166/182 92/182/170
f 84/166/182 85/165/183 92/182/170
f 85/165/183 86/164/184 92/182/170
f 86/164/184 87/163/185 92/182/170
f 87/163/185 88/162/186 92/182/170
f 88/162/186 89/161/187 92/182/170
f 89/161/187 90/180/188 92/182/170
f 90/180/188 71/179/168 92/182/170
